<svg xmlns="http://www.w3.org/2000/svg" width="536" height="300.998" viewBox="0 0 536 300.998">
  <g id="placeholder" transform="translate(6384 -4231)">
    <path id="Rectangle_1180" data-name="Rectangle 1180" d="M6,0H529a7,7,0,0,1,7,7V301a0,0,0,0,1,0,0H0a0,0,0,0,1,0,0V6A6,6,0,0,1,6,0Z" transform="translate(-6384 4231)" fill="#f0f0f0"/>
    <g id="open-book" transform="translate(-6198 4283.952)">
      <g id="Group_745" data-name="Group 745" transform="translate(0 35.048)">
        <g id="Group_744" data-name="Group 744">
          <path id="Path_666" data-name="Path 666" d="M40.714,35.049H40.7a5.812,5.812,0,0,0-4.131,1.712,5.872,5.872,0,0,0-1.736,4.185v88.423a5.917,5.917,0,0,0,5.9,5.9c13.726.033,36.722,2.894,52.586,19.5V62.222a5.651,5.651,0,0,0-.811-2.986C79.492,38.267,54.471,35.081,40.714,35.049Z" transform="translate(-15.506 -35.048)" fill="#0d324d"/>
          <path id="Path_667" data-name="Path 667" d="M215.24,129.368V40.945A5.872,5.872,0,0,0,213.5,36.76a5.813,5.813,0,0,0-4.131-1.712h-.014c-13.756.033-38.777,3.219-51.8,24.187a5.65,5.65,0,0,0-.81,2.986v92.536c15.864-16.6,38.86-19.462,52.586-19.495A5.917,5.917,0,0,0,215.24,129.368Z" transform="translate(-69.779 -35.048)" fill="#0d324d"/>
          <path id="Path_668" data-name="Path 668" d="M235.229,71.8h-4.276v73.928a15.086,15.086,0,0,1-15.037,15.05c-11.642.028-30.839,2.3-44.434,15.172,23.513-5.757,48.3-2.015,62.427,1.2a5.9,5.9,0,0,0,7.216-5.745V77.7A5.9,5.9,0,0,0,235.229,71.8Z" transform="translate(-76.336 -51.409)" fill="#0d324d"/>
          <path id="Path_669" data-name="Path 669" d="M10.171,145.729V71.8H5.9A5.9,5.9,0,0,0,0,77.7v93.711a5.9,5.9,0,0,0,7.216,5.745c14.126-3.22,38.914-6.962,62.426-1.2-13.595-12.867-32.791-15.143-44.434-15.171A15.086,15.086,0,0,1,10.171,145.729Z" transform="translate(0 -51.409)" fill="#0d324d"/>
        </g>
      </g>
    </g>
  </g>
</svg>
