<svg xmlns="http://www.w3.org/2000/svg" width="535.999" height="300.999" viewBox="0 0 535.999 300.999">
  <path id="Exclusion_14" data-name="Exclusion 14" d="M523,273H-13V-22a6.007,6.007,0,0,1,6-6H516a7.008,7.008,0,0,1,7,7V273ZM211.4,104.8c7.011,0,12.419,2.078,16.075,6.175,3.8,4.258,5.725,10.726,5.725,19.226V187h31.2V125.4c0-15.663-4.3-27.809-12.775-36.1-7.692-7.524-18.7-11.5-31.825-11.5-14.6,0-27.239,5.043-35.6,14.2V79.4H154.4V187h31.2V133.8a39.941,39.941,0,0,1,1.922-12.884,24.251,24.251,0,0,1,5.353-9.041,21.8,21.8,0,0,1,8.166-5.328A29.419,29.419,0,0,1,211.4,104.8Zm108.552,57.587h0a6.485,6.485,0,0,1,1.221,1.562,6.768,6.768,0,0,1,.536,1.562c.972,5.831,2.664,10.267,5.029,13.184a11.19,11.19,0,0,0,9.033,4.394c1.1,0,2.742.115,4.883.342s3.751.342,4.785.342a15.816,15.816,0,0,0,6.152-1.318,24.492,24.492,0,0,0,6.151-3.857c1.75-1.49,3.491-3.034,5.176-4.59s3.4-3.1,5.079-4.59l-3.809-8.984c-1.5,1.307-2.851,2.44-4,3.369a30.654,30.654,0,0,1-3.028,2.2c-2.838.968-5.106,1.691-6.738,2.148a18.137,18.137,0,0,1-2.929.683,16.673,16.673,0,0,1-6.579-1.208,11.75,11.75,0,0,1-4.7-3.626,16.532,16.532,0,0,1-2.82-5.994,33.039,33.039,0,0,1-.94-8.313c2.137-3.238,4.24-6.688,6.251-10.254,1.484-2.2,2.831-4.134,4-5.762s2.118-3,2.832-4.1c.613-1.295,1.124-2.381,1.562-3.321a27.347,27.347,0,0,1,1.27-2.441c.905-1.422,1.694-2.605,2.344-3.516a19.308,19.308,0,0,0,1.562-2.539c.777-1.49,1.4-2.8,1.856-3.906a19.354,19.354,0,0,0,.976-2.93c.706-1.156,1.379-2.224,2-3.174s1.129-1.75,1.514-2.392c.969-2.519,1.823-4.885,2.539-7.032s1.3-4.04,1.758-5.664c.839-1.806,1.529-3.383,2.051-4.687s.913-2.414,1.172-3.321l-.1-1.367a4.831,4.831,0,0,0,.488-1.562,16.838,16.838,0,0,1,1.075-5.566,15.359,15.359,0,0,0,1.074-4.687,33.5,33.5,0,0,1,.537-4.932,33.341,33.341,0,0,0,.537-4.834c0-4.017-.706-6.793-2.1-8.252s-4.005-2.2-7.763-2.2c-1.879,0-4.031,1.314-6.4,3.906a74.049,74.049,0,0,0-8.154,11.622c-2.264,3.88-4.334,7.724-6.152,11.425A82.66,82.66,0,0,0,334.8,88.851c-.781,1.731-1.678,3.72-2.441,5.42a33.615,33.615,0,0,1-2.051,3.955c-1.944,6.026-3.7,11.694-5.224,16.845s-2.721,9.962-3.565,14.307l.586,1.855c-.454.714-.979,2.849-1.562,6.348a52.943,52.943,0,0,0-.878,7.52,12.914,12.914,0,0,1,.292,2.051c0,.583-.016,1.043-.049,1.367a1.074,1.074,0,0,1-.439.781l-6.446,5.664a23.554,23.554,0,0,0-2.344,3.076,17.018,17.018,0,0,1-1.758,2.393l3.906,8.984c1.61-1.48,3.007-2.827,4.151-4,1.121-1.154,2.123-2.172,2.977-3.027ZM334.8,130.062h0l-.586-.781a20.816,20.816,0,0,1,.977-4.883c.65-2.273,1.6-5.263,2.832-8.887,1.1-2.4,2.189-4.639,3.223-6.641.841-1.682,1.481-3.079,1.9-4.15a7.488,7.488,0,0,0,.635-2.295,17.875,17.875,0,0,1,2.783-9.083,49.489,49.489,0,0,1,8.252-9.96l.684.391c-.271,1.284-.551,2.549-.831,3.759a22.131,22.131,0,0,0-.536,3.857c-.194,1.619-1.443,5.43-3.712,11.328s-3.942,9.608-4.98,11.035c-1.227,2.132-2.345,4-3.321,5.567a34.2,34.2,0,0,0-2.245,4.1,34.151,34.151,0,0,1-2.93,4.882c-.842,1.1-1.564,1.693-2.148,1.758Z" transform="translate(13 28)" fill="#f0f0f0"/>
</svg>
