<svg xmlns="http://www.w3.org/2000/svg" width="33" height="33" viewBox="0 0 33 33">
  <defs>
    <style>
      .cls-1 {
        fill: #fff;
      }
    </style>
  </defs>
  <path id="icon-profile" class="cls-1" d="M42.045,33h-33a21.62,21.62,0,0,1,2.232-8.55,18.541,18.541,0,0,1,5.14-6.323,13.785,13.785,0,0,1-1.33-5.948A13.176,13.176,0,0,1,18.15,3.567a9.449,9.449,0,0,1,14.79,0A13.176,13.176,0,0,1,36,12.178a13.792,13.792,0,0,1-1.33,5.948,18.543,18.543,0,0,1,5.139,6.323A21.623,21.623,0,0,1,42.045,33Z" transform="translate(-9.045)"/>
</svg>
