<svg id="timer" xmlns="http://www.w3.org/2000/svg" xmlns:xlink="http://www.w3.org/1999/xlink" width="51.878" height="61.1" viewBox="0 0 51.878 61.1">
  <defs>
    <style>
      .cls-1 {
        fill: url(#linear-gradient);
      }
    </style>
    <linearGradient id="linear-gradient" x1="0.5" x2="0.5" y2="1" gradientUnits="objectBoundingBox">
      <stop offset="0" stop-color="#008aff"/>
      <stop offset="0.506" stop-color="#3876e1"/>
      <stop offset="1" stop-color="#2461cc"/>
    </linearGradient>
  </defs>
  <g id="Group_88" data-name="Group 88">
    <path id="Path_337" data-name="Path 337" class="cls-1" d="M413.862,59.448l-2.144,3.711,7.43,4.289,2.144-3.711a2.149,2.149,0,0,0-.787-2.932L416.8,58.66A2.143,2.143,0,0,0,413.862,59.448Z" transform="translate(-374.75 -52.281)"/>
    <path id="Path_338" data-name="Path 338" class="cls-1" d="M248.367,9.657a28.121,28.121,0,0,1,3.991.32V6.506l2.744-.021V2a1.994,1.994,0,0,0-2-2h-9.457a1.994,1.994,0,0,0-2,2V6.485l2.723.021V9.976A28.122,28.122,0,0,1,248.367,9.657Z" transform="translate(-222.428)"/>
    <path id="Path_339" data-name="Path 339" class="cls-1" d="M83.314,114.75c-14.326,0-25.939,11-25.939,24.564s11.613,24.564,25.939,24.564,25.939-11,25.939-24.564S97.64,114.75,83.314,114.75Zm12.121,36.109L80.321,140.95V126.961h4.362v11.825l13.235,8.677Z" transform="translate(-57.375 -102.778)"/>
  </g>
</svg>
