<svg id="Group_277" data-name="Group 277" xmlns="http://www.w3.org/2000/svg" width="71.869" height="71.869" viewBox="0 0 71.869 71.869">
  <defs>
    <style>
      .cls-1 {
        fill: #f0f0f0;
      }

      .cls-2 {
        fill: #fff;
      }

      .cls-3 {
        fill: #ed7000;
      }
    </style>
  </defs>
  <g id="Group_276" data-name="Group 276">
    <path id="Path_517" data-name="Path 517" class="cls-1" d="M35.934,0A35.934,35.934,0,1,1,0,35.934,35.934,35.934,0,0,1,35.934,0Z"/>
    <path id="Path_518" data-name="Path 518" class="cls-2" d="M32.341,0A32.341,32.341,0,1,1,0,32.341,32.341,32.341,0,0,1,32.341,0Z" transform="translate(3.593 3.593)"/>
    <g id="badge_2_" data-name="badge (2)" transform="translate(3.593 3.593)">
      <g id="Group_129" data-name="Group 129" transform="translate(19.815 17.877)">
        <g id="Group_128" data-name="Group 128" transform="translate(0)">
          <path id="Path_394" data-name="Path 394" class="cls-3" d="M199.619,124.927l3.256-6.12-6.928-.24a2.366,2.366,0,0,1-1.925-1.112l-3.672-5.88-3.672,5.88a2.367,2.367,0,0,1-1.925,1.112l-6.928.24,3.256,6.12a2.366,2.366,0,0,1,0,2.223l-3.256,6.12,6.928.24a2.366,2.366,0,0,1,1.925,1.112l3.672,5.88,3.672-5.88a2.367,2.367,0,0,1,1.925-1.112l6.928-.24-3.256-6.12A2.366,2.366,0,0,1,199.619,124.927Z" transform="translate(-177.824 -111.575)"/>
        </g>
      </g>
      <g id="Group_131" data-name="Group 131">
        <g id="Group_130" data-name="Group 130">
          <path id="Path_395" data-name="Path 395" class="cls-3" d="M86.495,0A32.332,32.332,0,0,0,68.663,59.308l.261.172q.158.1.318.2l.265.166c.106.065.211.131.317.2q.212.128.427.253t.4.23l.29.162.32.174.3.158c.1.054.208.109.313.162q.249.127.5.249c.115.056.231.111.347.166l.335.157.312.141.34.149c.1.043.2.087.3.129q.293.123.589.241l.261.1c.132.051.265.1.4.151l.3.108q.194.07.39.138l.278.1q.313.105.629.2l.215.065c.156.048.312.095.469.14l.275.078q.219.061.44.119l.256.067q.333.085.668.163l.16.036q.273.062.547.119l.253.051q.243.049.487.094l.237.043c.233.041.468.081.7.117l.1.015q.311.047.624.088l.237.029q.261.032.523.06l.226.024q.364.036.73.065l.05,0q.346.026.693.044l.227.011q.274.013.548.021l.224.006c.25.006.5.009.751.009s.5,0,.751-.009l.224-.006q.275-.008.548-.021l.227-.011c.232-.013.463-.027.693-.044l.05,0q.366-.028.73-.065l.226-.024q.262-.028.523-.06l.237-.029q.313-.041.624-.088l.1-.015c.235-.036.469-.076.7-.117l.237-.043q.244-.045.487-.094L93.11,64q.274-.057.547-.119l.16-.036c.224-.052.446-.107.668-.163l.256-.067q.221-.058.44-.119l.275-.078q.235-.068.469-.14l.215-.065q.316-.1.629-.2l.278-.1q.2-.068.39-.138l.3-.108c.133-.05.265-.1.4-.151l.261-.1q.3-.118.589-.241l.3-.129.34-.149.312-.141c.112-.051.224-.1.335-.157s.232-.109.347-.166q.251-.123.5-.249c.1-.053.209-.108.313-.162l.3-.158.32-.174.29-.162q.2-.114.4-.23t.427-.253c.106-.064.212-.13.317-.2l.265-.166.318-.2.261-.172A32.332,32.332,0,0,0,86.495,0Zm18.484,40.7a2.366,2.366,0,0,1-2.007,3.476l-9.457.328L88.5,52.526a2.366,2.366,0,0,1-4.014,0L79.476,44.5l-9.457-.328A2.366,2.366,0,0,1,68.011,40.7l4.445-8.354-4.445-8.354a2.366,2.366,0,0,1,2.007-3.476l9.457-.328,5.012-8.026a2.366,2.366,0,0,1,4.014,0l5.012,8.026,9.457.328a2.366,2.366,0,0,1,2.007,3.476l-4.445,8.354Z" transform="translate(-54.154)"/>
        </g>
      </g>
    </g>
  </g>
</svg>
