<svg xmlns="http://www.w3.org/2000/svg" width="512" height="512" viewBox="0 0 512 512">
  <g id="explore" transform="translate(-66 -685)">
    <g id="Ellipse_273" data-name="Ellipse 273" transform="translate(66 685)" fill="none" stroke="#fff" stroke-width="20">
      <circle cx="256" cy="256" r="256" stroke="none"/>
      <circle cx="256" cy="256" r="246" fill="none"/>
    </g>
    <g id="Polygon_32" data-name="Polygon 32" transform="translate(359.5 717) rotate(30)" fill="none">
      <path d="M74.313,12.606a5,5,0,0,1,9.373,0l73.666,198.151a5,5,0,0,1,0,3.485L83.687,412.394a5,5,0,0,1-9.373,0L.648,214.242a5,5,0,0,1,0-3.485Z" stroke="none"/>
      <path d="M 78.99994659423828 57.39483642578125 L 21.33734130859375 212.5 L 78.99997711181641 367.6051330566406 L 136.6626281738281 212.4999389648438 L 78.99994659423828 57.39483642578125 M 78.99998474121094 9.34869384765625 C 80.93959808349609 9.34869384765625 82.87920379638672 10.43460083007813 83.68656158447266 12.60638427734375 L 157.3522796630859 210.7576599121094 C 157.7701416015625 211.8816528320313 157.7701416015625 213.1183776855469 157.3522796630859 214.2422943115234 L 83.68656158447266 412.3935852050781 C 82.87920379638672 414.5653686523438 80.9395751953125 415.6513061523438 78.99996185302734 415.6513061523438 C 77.06034088134766 415.6513061523438 75.12074279785156 414.5653991699219 74.31334686279297 412.3935852050781 L 0.647705078125 214.2422943115234 C 0.2298431396484375 213.1183776855469 0.2298431396484375 211.8816528320313 0.647705078125 210.7576599121094 L 74.31334686279297 12.60638427734375 C 75.12074279785156 10.43460083007813 77.06036376953125 9.34869384765625 78.99998474121094 9.34869384765625 Z" stroke="none" fill="#fff"/>
    </g>
    <circle id="Ellipse_274" data-name="Ellipse 274" cx="20" cy="20" r="20" transform="translate(302 921)" fill="#fff"/>
  </g>
</svg>
