<svg id="_3-stars-outlines" data-name="3-stars-outlines" xmlns="http://www.w3.org/2000/svg" xmlns:xlink="http://www.w3.org/1999/xlink" width="65.587" height="59.833" viewBox="0 0 65.587 59.833">
  <defs>
    <style>
      .cls-1 {
        fill: url(#radial-gradient);
      }
    </style>
    <radialGradient id="radial-gradient" cx="0.5" cy="0.5" r="0.5" gradientTransform="matrix(1, 0, 0, -1, 0, 1)" gradientUnits="objectBoundingBox">
      <stop offset="0" stop-color="#0ce191"/>
      <stop offset="0.527" stop-color="#3db773"/>
      <stop offset="1" stop-color="#2e8b57"/>
    </radialGradient>
  </defs>
  <g id="Group_87" data-name="Group 87">
    <path id="Path_334" data-name="Path 334" class="cls-1" d="M4.665,16.073l-.012-.138a3.865,3.865,0,0,1,.986-2.866,3.585,3.585,0,0,1,4.135-.574l5.974,3.249,5.861-3.194.115-.057a4.3,4.3,0,0,1,1.771-.4,3.241,3.241,0,0,1,2.363.98,3.859,3.859,0,0,1,.986,2.866l-.787,6.718,4.417,4.538.135.158A3.624,3.624,0,0,1,28.571,33.3l-6.715,1.089-2.881,5.8-.1.174a3.856,3.856,0,0,1-3.208,1.877,3.9,3.9,0,0,1-3.123-1.713l-3.5-6.133-5.973-1-.187-.042A3.859,3.859,0,0,1,.174,30.917,3.858,3.858,0,0,1,.888,27.35l4.553-4.7ZM3.555,29.483a.6.6,0,0,0-.143.355.613.613,0,0,0,.334.2l7.463,1.253,4.139,7.283c.165.2.291.248.317.248s.148-.049.3-.263L19.58,31.3l8.179-1.314a.808.808,0,0,0,.325-.166.658.658,0,0,0-.142-.333l-5.464-5.615.957-8.115a1.2,1.2,0,0,0-.022-.242,1.085,1.085,0,0,0-.238.073l-7.428,4.047L8.32,15.582a1.031,1.031,0,0,0-.238-.072,1.163,1.163,0,0,0-.022.241l.958,8.115Z" transform="translate(0.001 17.597)"/>
    <path id="Path_335" data-name="Path 335" class="cls-1" d="M171.814,33.3,165.1,34.387l-2.88,5.8-.1.173a3.854,3.854,0,0,1-3.207,1.877,3.9,3.9,0,0,1-3.123-1.713l-3.5-6.133-5.973-1-.187-.042a3.669,3.669,0,0,1-2-6l4.553-4.7-.777-6.581-.012-.138a3.865,3.865,0,0,1,.986-2.866,3.585,3.585,0,0,1,4.134-.574l5.974,3.249,5.861-3.194.115-.057a4.3,4.3,0,0,1,1.77-.4,3.243,3.243,0,0,1,2.364.98,3.866,3.866,0,0,1,.986,2.866l-.788,6.718,4.418,4.538.135.158a3.625,3.625,0,0,1-2.039,5.95Zm-.628-3.816-5.466-5.615.958-8.115a1.229,1.229,0,0,0-.022-.242,1.072,1.072,0,0,0-.238.073l-7.429,4.047-7.426-4.047a1.089,1.089,0,0,0-.238-.072,1.086,1.086,0,0,0-.022.241l.957,8.115L146.8,29.483a.605.605,0,0,0-.143.355c.008.022.093.119.334.2l7.464,1.253,4.138,7.283c.164.2.291.248.318.248s.148-.049.3-.263l3.61-7.265L171,29.981a.8.8,0,0,0,.325-.166A.638.638,0,0,0,171.186,29.482Z" transform="translate(-109.152 17.598)"/>
    <path id="Path_336" data-name="Path 336" class="cls-1" d="M97.405,158.038l-6.714,1.089-2.881,5.8-.1.174a3.855,3.855,0,0,1-3.207,1.877,3.9,3.9,0,0,1-3.123-1.713l-3.5-6.132-5.974-1-.185-.042a3.668,3.668,0,0,1-2-5.994l4.553-4.7-.777-6.582-.011-.138a3.863,3.863,0,0,1,.986-2.866,3.587,3.587,0,0,1,4.136-.574l5.974,3.249,5.859-3.193.114-.055a4.282,4.282,0,0,1,1.771-.405,3.247,3.247,0,0,1,2.364.98,3.859,3.859,0,0,1,.986,2.866l-.787,6.718,4.418,4.538.134.158a3.624,3.624,0,0,1-2.04,5.95Zm-.626-3.817-5.465-5.615.957-8.115a1.247,1.247,0,0,0-.021-.243,1.155,1.155,0,0,0-.238.073l-7.427,4.047-7.428-4.047a1.069,1.069,0,0,0-.238-.071,1.192,1.192,0,0,0-.022.242l.957,8.115-5.465,5.616a.3.3,0,0,0,.191.557l7.463,1.254,4.139,7.282c.165.2.291.249.318.249s.148-.049.3-.263l3.61-7.264,8.178-1.315a.834.834,0,0,0,.326-.165A.635.635,0,0,0,96.779,154.22Z" transform="translate(-52.454 -136.829)"/>
  </g>
</svg>
