<svg xmlns="http://www.w3.org/2000/svg" width="17.264" height="13.19" viewBox="0 0 17.264 13.19">
    <defs>
        <style>
            .cls-1{fill:#0d324d}
        </style>
    </defs>
    <g id="Group_747" transform="translate(-684.278 -657.312)">
        <g id="open-book" transform="translate(684.278 657.312)">
            <g id="Group_745">
                <g id="Group_744">
                    <path id="Path_666" d="M35.449 35.049a.609.609 0 0 0-.433.179.615.615 0 0 0-.182.438v9.264a.62.62 0 0 0 .619.618 7.642 7.642 0 0 1 5.509 2.042V37.9a.592.592 0 0 0-.085-.313c-1.365-2.201-3.987-2.535-5.428-2.538z" class="cls-1" transform="translate(-32.808 -35.049)"/>
                    <path id="Path_667" d="M162.879 44.929v-9.263a.617.617 0 0 0-.615-.618c-1.441 0-4.063.337-5.427 2.534a.592.592 0 0 0-.085.313v9.695a7.642 7.642 0 0 1 5.509-2.042.62.62 0 0 0 .618-.619z" class="cls-1" transform="translate(-147.639 -35.048)"/>
                    <path id="Path_668" d="M178.16 71.8h-.448v7.745a1.581 1.581 0 0 1-1.575 1.577 6.852 6.852 0 0 0-4.655 1.589 14.872 14.872 0 0 1 6.54.126.618.618 0 0 0 .756-.6v-9.818a.618.618 0 0 0-.618-.619z" class="cls-1" transform="translate(-161.514 -69.665)"/>
                    <path id="Path_669" d="M1.066 79.546V71.8H.618a.618.618 0 0 0-.618.619v9.818a.618.618 0 0 0 .756.6 14.871 14.871 0 0 1 6.54-.126 6.852 6.852 0 0 0-4.655-1.589 1.58 1.58 0 0 1-1.575-1.576z" class="cls-1" transform="translate(0 -69.665)"/>
                </g>
            </g>
        </g>
    </g>
</svg>
