<svg xmlns="http://www.w3.org/2000/svg" width="512" height="512" viewBox="0 0 512 512">
  <g id="review" transform="translate(-37 -29)">
    <g id="Ellipse_271" data-name="Ellipse 271" transform="translate(37 29)" fill="none" stroke="#fff" stroke-width="20">
      <circle cx="256" cy="256" r="256" stroke="none"/>
      <circle cx="256" cy="256" r="246" fill="none"/>
    </g>
    <g id="Polygon_31" data-name="Polygon 31" transform="translate(143 135)" fill="none">
      <path d="M145.683,7.389a5,5,0,0,1,8.634,0l47.126,80.659a5,5,0,0,0,3.088,2.324l87.893,22.3a5,5,0,0,1,2.655,7.995l-58.884,72.655a5,5,0,0,0-1.1,3.516l7,94.918a5,5,0,0,1-6.978,4.954l-83.127-36.091a5,5,0,0,0-3.982,0L64.881,296.706a5,5,0,0,1-6.978-4.954l7-94.918a5,5,0,0,0-1.1-3.516L4.922,120.663a5,5,0,0,1,2.655-7.995l87.892-22.3a5,5,0,0,0,3.088-2.324Z" stroke="none"/>
      <path d="M 149.9999084472656 39.64572143554688 L 115.8255462646484 98.13748168945313 C 112.4668731689453 103.8860931396484 106.8393707275391 108.1217651367188 100.3867645263672 109.7583160400391 L 35.22445678710938 126.2879791259766 L 79.3438720703125 180.7255401611328 C 83.36692810058594 185.6900329589844 85.323486328125 191.93359375 84.85308837890625 198.3052673339844 L 79.67510986328125 268.4796142578125 L 140.0429229736328 242.2699890136719 C 143.2038116455078 240.8974761962891 146.5538177490234 240.2015380859375 149.9999847412109 240.2015380859375 C 153.4455413818359 240.2015380859375 156.7951507568359 240.8972625732422 159.9562683105469 242.2695922851563 L 220.3247375488281 268.4795837402344 L 215.1466064453125 198.3050842285156 C 214.6764221191406 191.9324340820313 216.6332702636719 185.6888732910156 220.6565856933594 180.7246398925781 L 264.7754516601563 126.2879486083984 L 199.6138153076172 109.7585296630859 C 193.1607055664063 108.1218719482422 187.5333251953125 103.8863677978516 184.1742553710938 98.13754272460938 L 149.9999084472656 39.64572143554688 M 149.9999237060547 4.91143798828125 C 151.6759643554688 4.91143798828125 153.3520050048828 5.7373046875 154.3170928955078 7.38909912109375 L 201.44287109375 88.04820251464844 C 202.1190490722656 89.20542907714844 203.2314758300781 90.04281616210938 204.5306549072266 90.372314453125 L 292.4232482910156 112.6678771972656 C 295.960693359375 113.5652008056641 297.3761596679688 117.8273162841797 295.0783081054688 120.66259765625 L 236.1943664550781 193.3174285888672 C 235.392822265625 194.3064270019531 234.9987182617188 195.5639801025391 235.0923767089844 196.8335266113281 L 242.0963745117188 291.7519226074219 C 242.3198699951172 294.7809448242188 239.8789672851563 297.1266479492188 237.1146697998047 297.1266479492188 C 236.4569702148438 297.1266479492188 235.7815246582031 296.9940490722656 235.11865234375 296.7062683105469 L 151.9912567138672 260.6151428222656 C 151.3561553955078 260.3394165039063 150.6780242919922 260.2015380859375 149.9999542236328 260.2015380859375 C 149.3218994140625 260.2015380859375 148.6438751220703 260.3393859863281 148.0087585449219 260.6151428222656 L 64.88125610351563 296.7062683105469 C 64.21859741210938 296.9939575195313 63.54275512695313 297.1266479492188 62.88523864746094 297.1266479492188 C 60.12069702148438 297.1266479492188 57.68003845214844 294.7811889648438 57.90353393554688 291.7519226074219 L 64.90731811523438 196.8335266113281 C 65.00103759765625 195.5639801025391 64.60687255859375 194.3064880371094 63.80537414550781 193.3174285888672 L 4.921661376953125 120.66259765625 C 2.623809814453125 117.8273162841797 4.039276123046875 113.5652618408203 7.57672119140625 112.6679229736328 L 95.46914672851563 90.372314453125 C 96.768310546875 90.04281616210938 97.88076782226563 89.20542907714844 98.55686950683594 88.04820251464844 L 145.6827697753906 7.38909912109375 C 146.6478424072266 5.7373046875 148.3238830566406 4.91143798828125 149.9999237060547 4.91143798828125 Z" stroke="none" fill="#fff"/>
    </g>
  </g>
</svg>
