<svg xmlns="http://www.w3.org/2000/svg" width="512" height="512" viewBox="0 0 512 512">
  <g id="review_blue" data-name="review blue" transform="translate(-37 -29)">
    <g id="Ellipse_271" data-name="Ellipse 271" transform="translate(37 29)" fill="none" stroke="#0d324d" stroke-width="40">
      <circle cx="256" cy="256" r="256" stroke="none"/>
      <circle cx="256" cy="256" r="236" fill="none"/>
    </g>
    <g id="Polygon_31" data-name="Polygon 31" transform="translate(143 135)" fill="none">
      <path d="M145.683,7.389a5,5,0,0,1,8.634,0l47.126,80.659a5,5,0,0,0,3.088,2.324l87.892,22.3a5,5,0,0,1,2.655,7.995l-58.884,72.655a5,5,0,0,0-1.1,3.516l7,94.918a5,5,0,0,1-6.978,4.954l-83.128-36.091a5,5,0,0,0-3.982,0L64.881,296.706a5,5,0,0,1-6.978-4.954l7-94.918a5,5,0,0,0-1.1-3.516L4.922,120.663a5,5,0,0,1,2.655-7.995l87.892-22.3a5,5,0,0,0,3.088-2.324Z" stroke="none"/>
      <path d="M 149.9999847412109 59.46856689453125 L 124.4593353271484 103.1831359863281 C 119.7572631835938 111.2303466796875 111.8792724609375 117.1598815917969 102.8455963134766 119.4513397216797 L 52.83671569824219 132.1370086669922 L 87.11219787597656 174.4286041259766 C 92.74479675292969 181.3785400390625 95.48426818847656 190.1194152832031 94.82606506347656 199.0413513183594 L 90.86524963378906 252.7194519042969 L 136.0619354248047 233.0966796875 C 140.4868011474609 231.1756744384766 145.1761932373047 230.2016754150391 150 230.2016754150391 C 154.8238067626953 230.2016754150391 159.5131988525391 231.1756744384766 163.9387359619141 233.0969390869141 L 209.134765625 252.7194519042969 L 205.1739349365234 199.0409393310547 C 204.5157318115234 190.1194152832031 207.2552032470703 181.3785400390625 212.8878631591797 174.428466796875 L 247.1632843017578 132.1370086669922 L 197.1547241210938 119.4514007568359 C 188.1202087402344 117.1597442626953 180.241943359375 111.2298126220703 175.5401306152344 103.1822814941406 L 149.9999847412109 59.46856689453125 M 149.9999694824219 4.91143798828125 C 151.6760101318359 4.91143798828125 153.3520660400391 5.7373046875 154.317138671875 7.389068603515625 L 201.4430694580078 88.04820251464844 C 202.1192016601563 89.20547485351563 203.2316589355469 90.04280090332031 204.5307922363281 90.37234497070313 L 292.4232788085938 112.6678771972656 C 295.9607238769531 113.5652008056641 297.3761901855469 117.8272705078125 295.0783386230469 120.6625366210938 L 236.1945953369141 193.3175354003906 C 235.39306640625 194.3065490722656 234.9989318847656 195.5640716552734 235.0925903320313 196.8336791992188 L 242.0964660644531 291.7520141601563 C 242.3199615478516 294.7809753417969 239.8790435791016 297.1266784667969 237.1147918701172 297.1266784667969 C 236.4570922851563 297.1266784667969 235.7816619873047 296.9940795898438 235.1188049316406 296.7062683105469 L 151.9912719726563 260.6152648925781 C 151.3561401367188 260.3395385742188 150.6780700683594 260.20166015625 150 260.20166015625 C 149.3219299316406 260.20166015625 148.6438598632813 260.3395385742188 148.0087280273438 260.6152648925781 L 64.88119506835938 296.7062683105469 C 64.21853637695313 296.9939880371094 63.54267883300781 297.1266784667969 62.88517761230469 297.1266784667969 C 60.12063598632813 297.1266784667969 57.67997741699219 294.7812194824219 57.90353393554688 291.7520141601563 L 64.90739440917969 196.8336791992188 C 65.00106811523438 195.5640716552734 64.60693359375 194.3065490722656 63.80540466308594 193.3175354003906 L 4.921661376953125 120.6625366210938 C 2.623809814453125 117.8272705078125 4.039276123046875 113.5652008056641 7.57672119140625 112.6678771972656 L 95.46919250488281 90.37234497070313 C 96.76832580566406 90.04280090332031 97.8807373046875 89.20547485351563 98.55693054199219 88.04820251464844 L 145.6828002929688 7.389068603515625 C 146.6478729248047 5.7373046875 148.3239135742188 4.91143798828125 149.9999694824219 4.91143798828125 Z" stroke="none" fill="#0d324d"/>
    </g>
  </g>
</svg>
