<svg xmlns="http://www.w3.org/2000/svg" id="play-button_1_" width="27.561" height="27.561" viewBox="0 0 27.561 27.561">
    <defs>
        <style>
            .cls-1{fill:#fff}
        </style>
    </defs>
    <path id="Path_605" d="M27.554 13.331a13.78 13.78 0 1 0-14.223 14.223c.151 0 .3.007.45.007a13.781 13.781 0 0 0 13.773-14.23zm-5.959 8.017a10.791 10.791 0 0 1-7.814 3.311c-.119 0-.238 0-.357-.006A10.878 10.878 0 0 1 13.781 2.9c.119 0 .238 0 .357.006a10.878 10.878 0 0 1 7.457 18.44z" class="cls-1" transform="translate(0 -.001)"/>
    <path id="Path_606" d="M63.987 48.031l-7.206-4.368a1.185 1.185 0 0 0-1.839.8V53.2a1.185 1.185 0 0 0 1.839.8l7.206-4.368a.9.9 0 0 0 0-1.601z" class="cls-1" transform="translate(-45.103 -35.049)"/>
</svg>
