<svg xmlns="http://www.w3.org/2000/svg" width="142.448" height="142.446" viewBox="0 0 142.448 142.446">
  <g id="play-button_1_" data-name="play-button (1)" transform="translate(0 -0.001)">
    <path id="Path_1130" data-name="Path 1130" d="M142.411,68.9A71.224,71.224,0,1,0,68.9,142.41c.779.025,1.551.037,2.325.037A71.229,71.229,0,0,0,142.411,68.9Zm-30.8,41.436a55.773,55.773,0,0,1-40.389,17.112c-.614,0-1.228-.01-1.847-.029A56.224,56.224,0,0,1,71.224,15c.614,0,1.228.01,1.847.029a56.222,56.222,0,0,1,38.542,95.306Z" fill="#0d324d"/>
    <path id="Path_1131" data-name="Path 1131" d="M94.585,67.086,63,44.44a5.092,5.092,0,0,0-8.059,4.138V93.871A5.092,5.092,0,0,0,63,98.009L94.584,75.362A5.091,5.091,0,0,0,94.585,67.086Z" fill="#0d324d"/>
  </g>
</svg>
